# xmcd
#
# Track frame offsets: 
#        150
#        14852
#        29712
#        49200
#        65272
#        81370
#        99607
#        118992
#        137215
#
# Disc length: 2021 seconds
#
# Revision: 0
# Processed by: cddbd v1.5PL3 Copyright (c) Steve Scherf et al.
# Submitted via: ExactAudioCopy v0.95a5
#
DISCID=8907e309
DTITLE=Little Johnny Taylor - Your're Looking Good
DYEAR=1997
DGENRE=Blues
TTITLE0=You're Looking Good
TTITLE1=Working Man
TTITLE2=She is so Good to Me
TTITLE3=You Must Think I'm Crazy
TTITLE4=Will You Be Home by Xmas
TTITLE5=Golden Rule
TTITLE6=When Things Go Wrong
TTITLE7=When God Made You
TTITLE8=Instrumental (remix) Working Man
EXTD=
EXTT0=
EXTT1=
EXTT2=
EXTT3=
EXTT4=
EXTT5=
EXTT6=
EXTT7=
EXTT8=
PLAYORDER=
